Coordinates
version=1
nRows=49
nColumns=12
inDegrees=yes

Units are S.I. units (second, meters, Newtons, ...)
Angles are in degrees

endheader
time	SC_y	SC_z	SC_x	AC_y	AC_z	AC_x	GH_y	GH_z	GH_yy	EL_x	PS_y
       0.0               -15.0          26.99          7.907          49.68          3.929         -10.57          52.02          39.24          -27.2          134.5          64.45
   0.01244              -15.01          26.99          7.917          49.68          3.929         -10.57          52.03          39.24         -27.21          134.5          64.44
   0.02487              -15.01          26.98          7.927          49.68          3.929         -10.57          52.04          39.25         -27.22          134.5          64.44
   0.03731              -15.01          26.98          7.939          49.67          3.929         -10.57          52.05          39.25         -27.23          134.5          64.43
   0.04974              -15.02          26.98           7.95          49.67          3.929         -10.57          52.06          39.26         -27.24          134.5          64.42
   0.06218              -15.02          26.98          7.963          49.67          3.929         -10.58          52.07          39.27         -27.26          134.4          64.42
   0.07461              -15.03          26.97          7.976          49.67          3.929         -10.58          52.09          39.27         -27.27          134.4          64.41
   0.08705              -15.04          26.97          7.991          49.67          3.929         -10.58           52.1          39.28         -27.28          134.4           64.4
   0.09948              -15.04          26.96          8.006          49.66          3.929         -10.58          52.11          39.29          -27.3          134.4          64.39
    0.1119              -15.05          26.96          8.023          49.66          3.929         -10.58          52.13          39.29         -27.32          134.4          64.39
    0.1244              -15.06          26.95          8.041          49.66          3.929         -10.58          52.15           39.3         -27.33          134.4          64.38
    0.1368              -15.07          26.95           8.06          49.66          3.929         -10.58          52.17          39.31         -27.35          134.4          64.37
    0.1492              -15.08          26.94           8.08          49.65          3.929         -10.58          52.19          39.32         -27.37          134.4          64.36
    0.1617              -15.08          26.94          8.103          49.65          3.929         -10.58          52.21          39.33         -27.39          134.4          64.34
    0.1741               -15.1          26.93          8.127          49.65           3.93         -10.58          52.23          39.34         -27.42          134.4          64.33
    0.1865              -15.11          26.93          8.153          49.64           3.93         -10.59          52.26          39.36         -27.44          134.4          64.32
     0.199              -15.12          26.92          8.181          49.64           3.93         -10.59          52.28          39.37         -27.47          134.4           64.3
    0.2114              -15.13          26.91          8.212          49.63           3.93         -10.59          52.31          39.39          -27.5          134.4          64.29
    0.2238              -15.15           26.9          8.246          49.63           3.93         -10.59          52.35           39.4         -27.54          134.4          64.27
    0.2363              -15.16          26.89          8.283          49.62           3.93         -10.59          52.38          39.42         -27.57          134.4          64.25
    0.2487              -15.18          26.88          8.323          49.62           3.93         -10.59          52.42          39.44         -27.61          134.4          64.23
    0.2611               -15.2          26.87          8.368          49.61           3.93          -10.6          52.46          39.46         -27.66          134.3          64.21
    0.2736              -15.22          26.86          8.417           49.6           3.93          -10.6          52.51          39.48         -27.71          134.3          64.18
     0.286              -15.24          26.84          8.472          49.59           3.93          -10.6          52.57          39.51         -27.76          134.3          64.15
    0.2984              -15.27          26.82          8.533          49.58          3.931         -10.61          52.62          39.54         -27.82          134.3          64.12
    0.3109               -15.3          26.81          8.601          49.57          3.931         -10.61          52.69          39.57         -27.89          134.3          64.09
    0.3233              -15.33          26.79          8.677          49.56          3.931         -10.61          52.76          39.61         -27.96          134.3          64.05
    0.3357              -15.37          26.76          8.762          49.55          3.931         -10.62          52.85          39.65         -28.05          134.2           64.0
    0.3482              -15.41          26.74          8.859          49.53          3.932         -10.62          52.94           39.7         -28.14          134.2          63.95
    0.3606              -15.46          26.71          8.969          49.52          3.932         -10.63          53.05          39.75         -28.25          134.2          63.89
    0.3731              -15.51          26.68          9.094           49.5          3.932         -10.64          53.17          39.81         -28.38          134.1          63.83
    0.3855              -15.57          26.64          9.237          49.47          3.933         -10.64          53.31          39.88         -28.52          134.1          63.75
    0.3979              -15.64          26.59          9.403          49.45          3.933         -10.65          53.47          39.96         -28.68          134.1          63.67
    0.4104              -15.73          26.54          9.596          49.42          3.934         -10.66          53.65          40.05         -28.88          134.0          63.57
    0.4228              -15.82          26.48          9.822          49.38          3.934         -10.68          53.87          40.16          -29.1          133.9          63.45
    0.4352              -15.94          26.41          10.09          49.34          3.935         -10.69          54.13          40.29         -29.36          133.9          63.31
    0.4477              -16.07          26.33           10.4           49.3          3.936         -10.71          54.44          40.44         -29.68          133.8          63.15
    0.4601              -16.24          26.23          10.78          49.24          3.937         -10.73           54.8          40.62         -30.05          133.7          62.95
    0.4725              -16.43          26.11          11.24          49.17          3.938         -10.75          55.25          40.84         -30.51          133.6          62.71
     0.485              -16.67          25.96           11.8          49.08           3.94         -10.78          55.79          41.11         -31.06          133.4          62.42
    0.4974              -16.97          25.78          12.49          48.97          3.941         -10.82          56.46          41.44         -31.75          133.2          62.06
    0.5098              -17.34          25.55          13.35          48.84          3.944         -10.87          57.29          41.85          -32.6          133.0          61.62
    0.5223              -17.81          25.27          14.44          48.68          3.947         -10.92          58.34          42.38         -33.68          132.7          61.05
    0.5347               -18.4           24.9          15.82          48.46          3.951          -11.0          59.68          43.04         -35.04          132.3          60.33
    0.5471              -19.16          24.43          17.58          48.19          3.955         -11.09          61.39          43.89         -36.79          131.8          59.42
    0.5596              -20.13          23.84          19.85          47.84          3.962         -11.21          63.59          44.97         -39.04          131.2          58.24
     0.572              -21.37          23.07          22.74           47.4           3.97         -11.37          66.39          46.36         -41.91          130.4          56.73
    0.5845              -22.94          22.11          26.38          46.84           3.98         -11.57          69.91          48.11         -45.52          129.4          54.84
    0.5969              -24.84          20.94          30.82          46.16          3.992          -11.8          74.21          50.24         -49.92          128.2          52.53
